{"title":"The.5th.Wave.2016.BRRip.720p.x264.AAC-PRiSTiNE [P2PDL]","uid":14270248,"size":743195325,"categoryP":"video","categoryS":"movies","magnet":"?xt=urn:btih:d97429dc74a01a3c8355c0036152cc8e0e3e1416&amp;dn=The.5th.Wave.2016.BRRip.720p.x264.AAC-PRiSTiNE+%5BP2PDL%5D&amp;tr=udp%3A%2F%2Ftracker.leechers-paradise.org%3A6969&amp;tr=udp%3A%2F%2Fzer0day.ch%3A1337&amp;tr=udp%3A%2F%2Fopen.demonii.com%3A1337&amp;tr=udp%3A%2F%2Ftracker.coppersurfer.tk%3A6969&amp;tr=udp%3A%2F%2Fexodus.desync.com%3A6969","seeders":2,"leechers":6,"uploader":"VYTOP2PDL","files":7,"time":1460302451,"description":"____    ____ ____    ____ .___________.  ______   \r\n     /   /      /   / |           | /  __    \r\n    /   /      /   /  `---|  |----`|  |  |  | \r\n        /     _    _/       |  |     |  |  |  | \r\n       /        |  |         |  |     |  `--'  | \r\n    __/         |__|         |__|      ______/  \r\n                                                  \r\nPresenting Small Encodes with quality for years!\r\n                                                                                                   \r\n                                                                                                   \r\n\r\n\r\nThe.5th.Wave.2016.BRRip.720p.x264.AAC-PRiSTiNE\r\n\r\n\r\nGenre: Action, Adventure, Sci-Fi  \nhttp://www.imdb.com/title/tt2304933/\r\n\r\n\r\nFormat                                   : MPEG-4\r\nFile size                                : 696 MiB\r\nDuration                                 : 1h 52mn\r\nOverall bit rate                         : 865 Kbps\r\n\r\nVideo\r\nFormat                                   : AVC\r\nBit rate                                 : 783 Kbps\r\nWidth                                    : 1 280 pixels\r\nHeight                                   : 536 pixels\r\nDisplay aspect ratio                     : 2.40:1\r\nFrame rate mode                          : Constant\r\nFrame rate                               : 23.976 fps\r\nBit depth                                : 8 bits\r\nStream size                              : 629 MiB (90%)\r\nWriting library                          : x264 \r\n\r\nAudio\r\nFormat                                   : AAC\r\nBit rate mode                            : Variable\r\nBit rate                                 : 79.9 Kbps\r\nChannel(s)                               : 2 channels\r\nChannel positions                        : Front: L R\r\nSampling rate                            : 48.0 KHz \r\nStream size                              : 64.2 MiB (9%)\r\nLanguage                                 : English\r\n\r\nSubtitle                                 : Yes (English)\r\n\r\nScreen Shot: (Click  on the link to view)\r\n\r\n \nhttps://ititli.com/XhM \nhttps://ititli.com/XhU \nhttps://ititli.com/Xhh \nhttps://ititli.com/Xhs \nhttps://ititli.com/XhY \nhttps://ititli.com/Xh4 \nhttps://ititli.com/XhK \nhttps://ititli.com/XhV \nhttps://ititli.com/Xht \nhttps://ititli.com/XhL \nhttps://ititli.com/Xhd \nhttps://ititli.com/Xh0\r\n\r\n----------------------------------------------------------------------------------------------------\r\n\r\n\r\nEncoder Notes: Looking For Early Access To Anything You Can Provide WEBDL, DVDScr, DVDR, BluRay,\r\nDirect Audio, Music Releases and Seedboxes. If You Got anything to offer please contact us.\r\n\r\nSupport us by donating BC - 1FgwdzPsd1y25Gea8wP1qni35uGCtmkRCD\r\n\r\nFind us and join us @ P2PDL","torrent":{"xt":"urn:btih:d97429dc74a01a3c8355c0036152cc8e0e3e1416","amp;dn":"The.5th.Wave.2016.BRRip.720p.x264.AAC-PRiSTiNE+%5BP2PDL%5D","amp;tr":["udp%3A%2F%2Ftracker.leechers-paradise.org%3A6969","udp%3A%2F%2Fzer0day.ch%3A1337","udp%3A%2F%2Fopen.demonii.com%3A1337","udp%3A%2F%2Ftracker.coppersurfer.tk%3A6969","udp%3A%2F%2Fexodus.desync.com%3A6969"],"infoHash":"d97429dc74a01a3c8355c0036152cc8e0e3e1416","infoHashBuffer":{"type":"Buffer","data":[217,116,41,220,116,160,26,60,131,85,192,3,97,82,204,142,14,62,20,22]},"announce":[],"urlList":[]}}